<svg width="20" height="17" viewBox="0 0 20 17" fill="none" xmlns="http://www.w3.org/2000/svg">
<path d="M10.8495 0.389186L5.89026 5.24789C5.55904 5.57239 5.37106 6.01967 5.37106 6.4845V15.246C5.37106 16.2107 6.17671 17 7.16141 17H15.218C15.9341 17 16.5787 16.579 16.8651 15.9388L19.7834 9.26466C20.5353 7.52815 19.2373 5.5987 17.3127 5.5987H12.255L13.1054 1.58194C13.1949 1.14343 13.0606 0.696144 12.7384 0.380416C12.2102 -0.128258 11.3687 -0.128258 10.8495 0.389186ZM1.79035 17C2.77505 17 3.5807 16.2107 3.5807 15.246V8.22977C3.5807 7.26505 2.77505 6.47573 1.79035 6.47573C0.805658 6.47573 0 7.26505 0 8.22977V15.246C0 16.2107 0.805658 17 1.79035 17Z" fill="#737373"/>
</svg>
