<svg width="20" height="21" viewBox="0 0 20 21" fill="none" xmlns="http://www.w3.org/2000/svg">
<path d="M15.56 20C15.4001 20.0007 15.2423 19.9629 15.1 19.89L10 17.22L4.90001 19.89C4.7344 19.9771 4.54768 20.016 4.36108 20.0022C4.17448 19.9885 3.99548 19.9226 3.84444 19.8122C3.69339 19.7018 3.57635 19.5512 3.50662 19.3776C3.4369 19.2039 3.41728 19.0142 3.45001 18.83L4.45001 13.2L0.330007 9.20002C0.201464 9.07174 0.110278 8.91089 0.0662345 8.73471C0.0221906 8.55854 0.0269517 8.37369 0.0800067 8.20002C0.137967 8.02229 0.244583 7.86437 0.387757 7.74418C0.530931 7.62398 0.704929 7.54633 0.890007 7.52002L6.59001 6.69002L9.10001 1.56002C9.18189 1.39095 9.30974 1.24836 9.46892 1.14859C9.62809 1.04883 9.81215 0.995911 10 0.995911C10.1879 0.995911 10.3719 1.04883 10.5311 1.14859C10.6903 1.24836 10.8181 1.39095 10.9 1.56002L13.44 6.68002L19.14 7.51002C19.3251 7.53633 19.4991 7.61398 19.6423 7.73418C19.7854 7.85437 19.892 8.01229 19.95 8.19002C20.0031 8.36369 20.0078 8.54854 19.9638 8.72471C19.9197 8.90089 19.8286 9.06174 19.7 9.19002L15.58 13.19L16.58 18.82C16.6157 19.0075 16.597 19.2013 16.5261 19.3785C16.4553 19.5557 16.3352 19.7089 16.18 19.82C15.9989 19.9469 15.7809 20.0102 15.56 20Z" fill="#737373"/>
</svg>
