<svg width="16" height="16" viewBox="0 0 16 16" fill="none" xmlns="http://www.w3.org/2000/svg">
<path d="M15.325 7.45L12.5417 1.88334C12.3338 1.46697 12.0139 1.11688 11.6178 0.872485C11.2218 0.628091 10.7654 0.49909 10.3 0.500005H5.70001C5.23464 0.49909 4.77825 0.628091 4.38221 0.872485C3.98617 1.11688 3.66621 1.46697 3.45835 1.88334L0.675013 7.45C0.558926 7.68291 0.498993 7.93977 0.500013 8.2V13C0.500013 13.663 0.763405 14.2989 1.23225 14.7678C1.70109 15.2366 2.33697 15.5 3.00001 15.5H13C13.6631 15.5 14.2989 15.2366 14.7678 14.7678C15.2366 14.2989 15.5 13.663 15.5 13V8.2C15.501 7.93977 15.4411 7.68291 15.325 7.45ZM4.95001 2.625C5.0199 2.48631 5.12715 2.3699 5.25967 2.28892C5.39219 2.20793 5.54471 2.16559 5.70001 2.16667H10.3C10.4553 2.16559 10.6078 2.20793 10.7404 2.28892C10.8729 2.3699 10.9801 2.48631 11.05 2.625L13.3167 7.16667H11.3333C11.1123 7.16667 10.9004 7.25447 10.7441 7.41075C10.5878 7.56703 10.5 7.77899 10.5 8V9.66667C10.5 9.88768 10.4122 10.0996 10.2559 10.2559C10.0997 10.4122 9.88769 10.5 9.66668 10.5H6.33335C6.11233 10.5 5.90037 10.4122 5.74409 10.2559C5.58781 10.0996 5.50001 9.88768 5.50001 9.66667V8C5.50001 7.77899 5.41222 7.56703 5.25593 7.41075C5.09965 7.25447 4.88769 7.16667 4.66668 7.16667H2.68335L4.95001 2.625Z" fill="#DFDEDF"/>
</svg>
