<svg width="14" height="10" viewBox="0 0 14 10" fill="none" xmlns="http://www.w3.org/2000/svg">
<path d="M13.58 4.66674C13.1533 3.92674 10.8067 0.21341 6.82 0.33341C3.13334 0.426744 1 3.66674 0.420005 4.66674C0.361493 4.76809 0.330688 4.88305 0.330688 5.00008C0.330688 5.1171 0.361493 5.23206 0.420005 5.33341C0.840005 6.06008 3.08667 9.66674 7.01334 9.66674H7.18001C10.8667 9.57341 13.0067 6.33341 13.58 5.33341C13.6385 5.23206 13.6693 5.1171 13.6693 5.00008C13.6693 4.88305 13.6385 4.76809 13.58 4.66674ZM7 7.33341C6.53852 7.33341 6.08739 7.19656 5.70367 6.94017C5.31996 6.68378 5.02089 6.31937 4.84429 5.893C4.66768 5.46664 4.62147 4.99749 4.71151 4.54487C4.80154 4.09224 5.02377 3.67648 5.35009 3.35016C5.67641 3.02384 6.09217 2.80161 6.54479 2.71158C6.99742 2.62155 7.46657 2.66775 7.89293 2.84436C8.31929 3.02096 8.68371 3.32003 8.9401 3.70375C9.19649 4.08746 9.33334 4.53859 9.33334 5.00008C9.33334 5.61892 9.08751 6.21241 8.64992 6.64999C8.21234 7.08758 7.61884 7.33341 7 7.33341Z" fill="black"/>
</svg>
