<svg width="16" height="16" viewBox="0 0 16 16" fill="none" xmlns="http://www.w3.org/2000/svg">
<path d="M14.8917 6.65L9.54167 1.30834C9.40538 1.17126 9.22568 1.08583 9.03333 1.06667L1.24167 0.333336C1.11961 0.322111 0.996583 0.337948 0.881349 0.379721C0.766114 0.421493 0.661514 0.488172 0.575003 0.575003C0.488171 0.661514 0.421493 0.766115 0.379721 0.881349C0.337948 0.996583 0.322111 1.11961 0.333336 1.24167L1.06667 9.03334C1.08583 9.22568 1.17126 9.40538 1.30834 9.54167L6.65 14.8917C6.9365 15.1743 7.3226 15.3329 7.725 15.3333C8.12488 15.3325 8.50824 15.1738 8.79167 14.8917L14.8917 8.79167C15.1751 8.50737 15.3343 8.12229 15.3343 7.72084C15.3343 7.31938 15.1751 6.9343 14.8917 6.65ZM6.63334 6.65C6.45858 6.82497 6.23586 6.94418 5.99334 6.99254C5.75082 7.0409 5.49941 7.01623 5.27091 6.92167C5.04241 6.8271 4.84709 6.66689 4.70967 6.46129C4.57225 6.2557 4.4989 6.01396 4.4989 5.76667C4.4989 5.51938 4.57225 5.27764 4.70967 5.07205C4.84709 4.86645 5.04241 4.70623 5.27091 4.61167C5.49941 4.51711 5.75082 4.49244 5.99334 4.5408C6.23586 4.58916 6.45858 4.70837 6.63334 4.88334C6.86437 5.11595 6.99403 5.43049 6.99403 5.75834C6.99403 6.08618 6.86437 6.40073 6.63334 6.63334V6.65Z" fill="#DFDEDF"/>
</svg>
