<svg width="18" height="21" viewBox="0 0 18 21" fill="none" xmlns="http://www.w3.org/2000/svg">
<path d="M17.52 13.21L15.72 11.4V6.94002C15.7439 5.28384 15.1678 3.67493 14.0981 2.41035C13.0283 1.14578 11.5372 0.310951 9.89995 0.0600163C8.94976 -0.0651165 7.98382 0.0138312 7.06656 0.291592C6.1493 0.569352 5.30182 1.03954 4.58068 1.67078C3.85953 2.30202 3.2813 3.07979 2.88456 3.95221C2.48782 4.82463 2.2817 5.77163 2.27995 6.73002V11.4L0.479951 13.21C0.253857 13.4399 0.100535 13.7313 0.0391513 14.0478C-0.022232 14.3643 0.0110473 14.6919 0.134829 14.9897C0.25861 15.2874 0.467402 15.542 0.735102 15.7217C1.0028 15.9014 1.31753 15.9982 1.63995 16H4.99995V16.34C5.04666 17.3552 5.4939 18.3105 6.24368 18.9965C6.99345 19.6826 7.9846 20.0434 8.99995 20C10.0153 20.0434 11.0065 19.6826 11.7562 18.9965C12.506 18.3105 12.9532 17.3552 13 16.34V16H16.36C16.6824 15.9982 16.9971 15.9014 17.2648 15.7217C17.5325 15.542 17.7413 15.2874 17.8651 14.9897C17.9889 14.6919 18.0221 14.3643 17.9608 14.0478C17.8994 13.7313 17.746 13.4399 17.52 13.21ZM11 16.34C10.9445 16.821 10.7056 17.2621 10.333 17.5713C9.96045 17.8805 9.48293 18.0341 8.99995 18C8.51697 18.0341 8.03945 17.8805 7.66688 17.5713C7.29431 17.2621 7.05541 16.821 6.99995 16.34V16H11V16.34ZM2.50995 14L3.68995 12.82C3.87712 12.634 4.02561 12.4127 4.12687 12.169C4.22813 11.9253 4.28016 11.6639 4.27995 11.4V6.73002C4.2805 6.05542 4.42533 5.38874 4.70474 4.77473C4.98416 4.16071 5.39167 3.61357 5.89995 3.17002C6.40137 2.7157 6.99553 2.37577 7.64129 2.17375C8.28706 1.97173 8.96901 1.91245 9.63995 2.00002C10.7964 2.18779 11.8461 2.78703 12.5958 3.6874C13.3455 4.58776 13.7447 5.72865 13.72 6.90002V11.4C13.7184 11.6632 13.7689 11.9242 13.8684 12.1678C13.9679 12.4115 14.1146 12.6331 14.3 12.82L15.49 14H2.50995Z" fill="#737373"/>
</svg>
