<svg width="14" height="18" viewBox="0 0 14 18" fill="none" xmlns="http://www.w3.org/2000/svg">
<path d="M0.999969 18C0.828181 17.9995 0.659425 17.9547 0.50997 17.87C0.355503 17.7832 0.226882 17.6569 0.13727 17.504C0.0476582 17.3511 0.000274773 17.1772 -3.0584e-05 17V2.33C-0.0135489 1.73032 0.209797 1.14946 0.621603 0.713324C1.03341 0.277184 1.6005 0.0208945 2.19997 0H11.8C12.3994 0.0208945 12.9665 0.277184 13.3783 0.713324C13.7901 1.14946 14.0135 1.73032 14 2.33V17C13.9989 17.1745 13.9522 17.3457 13.8645 17.4966C13.7768 17.6475 13.6511 17.7727 13.5 17.86C13.3479 17.9478 13.1755 17.994 13 17.994C12.8244 17.994 12.652 17.9478 12.5 17.86L6.82997 14.65L1.49997 17.85C1.34952 17.9434 1.17698 17.9951 0.999969 18Z" fill="#737373"/>
</svg>
