<svg width="14" height="20" viewBox="0 0 14 20" fill="none" xmlns="http://www.w3.org/2000/svg">
<path fill-rule="evenodd" clip-rule="evenodd" d="M4.66671 6.66669H3.33337C1.67652 6.66669 0.333374 8.00983 0.333374 9.66669V17C0.333374 18.6569 1.67652 20 3.33337 20H10.6667C12.3236 20 13.6667 18.6569 13.6667 17V9.66669C13.6667 8.00984 12.3236 6.66669 10.6667 6.66669H9.33337V8.66669H10.6667C11.219 8.66669 11.6667 9.1144 11.6667 9.66669V17C11.6667 17.5523 11.219 18 10.6667 18H3.33337C2.78109 18 2.33337 17.5523 2.33337 17V9.66669C2.33337 9.1144 2.78109 8.66669 3.33337 8.66669H4.66671V6.66669Z" fill="#737373"/>
<path d="M4.08337 4.58335L7.00004 1.66669L9.91671 4.58335" stroke="#737373" stroke-width="1.5" stroke-linecap="round" stroke-linejoin="round"/>
<path d="M7 1.66669V12.1667" stroke="#737373" stroke-width="1.5" stroke-linecap="round" stroke-linejoin="round"/>
</svg>
