<svg width="20" height="18" viewBox="0 0 20 18" fill="none" xmlns="http://www.w3.org/2000/svg">
<path d="M9.14796 17.5879L14.0994 12.4434C14.4307 12.0998 14.6187 11.6262 14.6187 11.1341V1.85722C14.6187 0.835751 13.8129 0 12.828 0H4.77849C4.06219 0 3.41751 0.445734 3.13994 1.12362L0.220993 8.19036C-0.540083 10.029 0.758222 12.072 2.6833 12.072H7.74221L6.89159 16.325C6.80206 16.7893 6.93637 17.2629 7.2587 17.5972C7.78698 18.1358 8.62864 18.1358 9.14796 17.5879ZM18.2092 0C17.2243 0 16.4185 0.835751 16.4185 1.85722V9.28613C16.4185 10.3076 17.2243 11.1433 18.2092 11.1433C19.1942 11.1433 20 10.3076 20 9.28613V1.85722C20 0.835751 19.1942 0 18.2092 0Z" fill="#737373"/>
</svg>
