<svg width="10" height="10" viewBox="0 0 10 10" fill="none" xmlns="http://www.w3.org/2000/svg">
<path d="M8.9665 8.81409L8.96676 8.81432L8.97292 8.80623C9.23254 8.46511 9.20671 7.97635 8.89519 7.66482C8.89518 7.66482 8.89518 7.66482 8.89518 7.66482L6.23052 5L8.89518 2.33518C8.89518 2.33518 8.89518 2.33518 8.89519 2.33518C9.23494 1.99542 9.23494 1.44457 8.89518 1.10482C8.55543 0.765062 8.00458 0.765061 7.66482 1.10481C7.66482 1.10481 7.66482 1.10482 7.66482 1.10482L4.99999 3.76947L2.33518 1.10482C2.33518 1.10482 2.33518 1.10481 2.33518 1.10481C1.99542 0.765061 1.44457 0.765062 1.10482 1.10482L1.10458 1.10458L1.09794 1.11218L1.0335 1.18591L1.03324 1.18568L1.02708 1.19377C0.76746 1.53489 0.793287 2.02365 1.10481 2.33518C1.10481 2.33518 1.10482 2.33518 1.10482 2.33518L3.76947 4.99999L1.10482 7.66482C1.10482 7.66482 1.10481 7.66482 1.10481 7.66482C0.765061 8.00458 0.765062 8.55543 1.10482 8.89518C1.44457 9.23494 1.99542 9.23494 2.33518 8.89519C2.33518 8.89518 2.33518 8.89518 2.33518 8.89518L5 6.23052L7.66482 8.89518C7.66482 8.89518 7.66482 8.89518 7.66482 8.89519C8.00458 9.23494 8.55543 9.23494 8.89518 8.89518L8.89542 8.89542L8.90206 8.88782L8.9665 8.81409Z" fill="#818C99" stroke="#818C99" stroke-width="0.3"/>
</svg>
