<svg width="18" height="17" viewBox="0 0 18 17" fill="none" xmlns="http://www.w3.org/2000/svg">
<path d="M13.6334 16.5C13.5001 16.5006 13.3687 16.4691 13.25 16.4084L9.00005 14.1834L4.75005 16.4084C4.61204 16.4809 4.45644 16.5133 4.30094 16.5019C4.14544 16.4904 3.99628 16.4355 3.8704 16.3435C3.74453 16.2515 3.647 16.126 3.58889 15.9813C3.53079 15.8366 3.51444 15.6785 3.54171 15.525L4.37505 10.8334L0.941713 7.50003C0.834594 7.39313 0.758606 7.25909 0.721903 7.11227C0.6852 6.96546 0.689167 6.81142 0.73338 6.66669C0.78168 6.51859 0.870527 6.38699 0.989838 6.28683C1.10915 6.18666 1.25415 6.12195 1.40838 6.10003L6.15838 5.40836L8.25005 1.13336C8.31828 0.992468 8.42483 0.873646 8.55747 0.790505C8.69012 0.707365 8.8435 0.663269 9.00005 0.663269C9.15659 0.663269 9.30997 0.707365 9.44262 0.790505C9.57526 0.873646 9.68181 0.992468 9.75005 1.13336L11.8667 5.40003L16.6167 6.09169C16.7709 6.11362 16.9159 6.17833 17.0353 6.27849C17.1546 6.37866 17.2434 6.51026 17.2917 6.65836C17.3359 6.80309 17.3399 6.95713 17.3032 7.10394C17.2665 7.25075 17.1905 7.3848 17.0834 7.49169L13.65 10.825L14.4834 15.5167C14.5131 15.6729 14.4976 15.8344 14.4385 15.9821C14.3794 16.1297 14.2793 16.2574 14.15 16.35C13.9991 16.4558 13.8174 16.5085 13.6334 16.5Z" fill="#DFDEDF"/>
</svg>
