<svg width="18" height="16" viewBox="0 0 18 16" fill="none" xmlns="http://www.w3.org/2000/svg">
<path d="M6.49996 7.16667C7.15923 7.16667 7.8037 6.97117 8.35186 6.6049C8.90002 6.23863 9.32727 5.71803 9.57956 5.10895C9.83185 4.49986 9.89786 3.82964 9.76924 3.18303C9.64063 2.53643 9.32316 1.94249 8.85698 1.47631C8.39081 1.01014 7.79686 0.692668 7.15026 0.564051C6.50366 0.435433 5.83344 0.501444 5.22435 0.753736C4.61526 1.00603 4.09467 1.43327 3.72839 1.98143C3.36212 2.5296 3.16663 3.17406 3.16663 3.83334C3.16663 4.71739 3.51782 5.56524 4.14294 6.19036C4.76806 6.81548 5.6159 7.16667 6.49996 7.16667Z" fill="#DFDEDF"/>
<path d="M13.1666 8.83331C13.6611 8.83331 14.1444 8.68669 14.5556 8.41199C14.9667 8.13728 15.2871 7.74684 15.4763 7.29002C15.6655 6.83321 15.7151 6.33054 15.6186 5.84559C15.5221 5.36064 15.284 4.91518 14.9344 4.56555C14.5848 4.21592 14.1393 3.97781 13.6544 3.88135C13.1694 3.78489 12.6667 3.8344 12.2099 4.02362C11.7531 4.21283 11.3627 4.53327 11.088 4.94439C10.8132 5.35551 10.6666 5.83886 10.6666 6.33331C10.6666 6.99636 10.93 7.63224 11.3989 8.10108C11.8677 8.56992 12.5036 8.83331 13.1666 8.83331Z" fill="#DFDEDF"/>
<path d="M16.5 14.6666C16.721 14.6666 16.9329 14.5788 17.0892 14.4226C17.2455 14.2663 17.3333 14.0543 17.3333 13.8333C17.3326 13.0545 17.1137 12.2914 16.7013 11.6307C16.2889 10.97 15.6996 10.4381 15.0002 10.0954C14.3009 9.75261 13.5195 9.61275 12.7446 9.69163C11.9698 9.77051 11.2326 10.065 10.6166 10.5416C9.80038 9.72859 8.76167 9.17546 7.63148 8.95199C6.50129 8.72851 5.33023 8.8447 4.26598 9.28591C3.20174 9.72712 2.29197 10.4736 1.65141 11.4312C1.01085 12.3887 0.668184 13.5146 0.666626 14.6666C0.666626 14.8876 0.754423 15.0996 0.910704 15.2559C1.06698 15.4122 1.27895 15.5 1.49996 15.5H11.5C11.721 15.5 11.9329 15.4122 12.0892 15.2559C12.2455 15.0996 12.3333 14.8876 12.3333 14.6666" fill="#DFDEDF"/>
</svg>
