<svg width="16" height="19" viewBox="0 0 16 19" fill="none" xmlns="http://www.w3.org/2000/svg">
<path d="M2.08996 18.06C1.82474 18.06 1.57039 17.9546 1.38285 17.7671C1.19531 17.5796 1.08996 17.3252 1.08996 17.06L0.939957 2.4C0.927916 2.10234 0.97484 1.80525 1.07803 1.52579C1.18122 1.24633 1.33865 0.990038 1.54124 0.77164C1.74384 0.553243 1.98762 0.377054 2.25856 0.253208C2.52949 0.129361 2.82224 0.0603016 3.11996 0.05L12.71 0C13.0081 0.00520682 13.3022 0.0690924 13.5757 0.188008C13.8491 0.306923 14.0964 0.478538 14.3035 0.69305C14.5106 0.907563 14.6734 1.16077 14.7826 1.43821C14.8918 1.71565 14.9453 2.01189 14.94 2.31L15.08 16.97C15.0817 17.1452 15.0373 17.3178 14.9513 17.4705C14.8653 17.6232 14.7407 17.7506 14.59 17.84C14.4379 17.9278 14.2655 17.974 14.09 17.974C13.9144 17.974 13.742 17.9278 13.59 17.84L7.88996 14.68L2.59996 17.91C2.44331 17.9975 2.26903 18.0488 2.08996 18.06ZM7.84996 12.51C8.02372 12.5103 8.19498 12.5514 8.34996 12.63L13.06 15.24L12.94 2.29C12.94 2.09 12.81 1.95 12.73 1.96L3.12996 2.05C3.04996 2.05 2.93996 2.18 2.93996 2.38L3.05996 15.28L7.33996 12.65C7.4954 12.561 7.67086 12.5128 7.84996 12.51Z" fill="#737373"/>
</svg>
