<svg width="18" height="18" viewBox="0 0 18 18" fill="none" xmlns="http://www.w3.org/2000/svg">
<path d="M8.99996 0.666687C7.35179 0.666687 5.74062 1.15543 4.37021 2.07111C2.9998 2.98679 1.9317 4.28827 1.30097 5.81099C0.670237 7.33371 0.505209 9.00926 0.826752 10.6258C1.1483 12.2423 1.94197 13.7271 3.10741 14.8926C4.27284 16.058 5.7577 16.8517 7.37421 17.1732C8.99072 17.4948 10.6663 17.3297 12.189 16.699C13.7117 16.0683 15.0132 15.0002 15.9289 13.6298C16.8446 12.2594 17.3333 10.6482 17.3333 9.00002C17.3333 7.90567 17.1177 6.82204 16.699 5.81099C16.2802 4.79994 15.6663 3.88129 14.8925 3.10746C14.1187 2.33364 13.2 1.71981 12.189 1.30102C11.1779 0.882235 10.0943 0.666687 8.99996 0.666687ZM8.99996 2.33335C9.50211 2.33663 10.0024 2.39532 10.4916 2.50835C10.3468 2.83535 10.1235 3.12158 9.84163 3.34169C9.6583 3.48335 9.4583 3.60002 9.2583 3.72502C8.62515 4.03675 8.09132 4.51864 7.71663 5.11669C7.30616 5.97216 7.12797 6.92057 7.19996 7.86669C7.19996 9.00002 7.19996 9.66669 6.4083 10.2584C5.26663 11.15 3.52496 10.65 2.44163 10.2C2.37081 9.80392 2.33456 9.4024 2.3333 9.00002C2.3333 7.23191 3.03568 5.53622 4.28592 4.28598C5.53616 3.03573 7.23185 2.33335 8.99996 2.33335ZM13.075 14.2667C12.9308 13.9339 12.755 13.6158 12.55 13.3167C12.4583 13.1834 12.3666 13.05 12.2833 12.9084C11.9583 12.3417 12.075 12.075 12.6 11.2417L12.6833 11.1C13.0214 10.4799 13.1883 9.78097 13.1666 9.07502C13.1658 8.79552 13.1909 8.51655 13.2416 8.24169C13.375 7.63335 14.6666 7.46669 15.4666 7.40835C15.79 8.66545 15.7364 9.98989 15.3126 11.2168C14.8888 12.4437 14.1136 13.5188 13.0833 14.3084L13.075 14.2667Z" fill="#DFDEDF"/>
</svg>
