<svg width="16" height="17" viewBox="0 0 16 17" fill="none" xmlns="http://www.w3.org/2000/svg">
<path d="M5.74164 16.5C5.05316 16.4967 4.37221 16.3565 3.73843 16.0875C3.10465 15.8186 2.5307 15.4262 2.04998 14.9334C1.57286 14.4811 1.1896 13.9393 0.922127 13.3388C0.654651 12.7383 0.508208 12.091 0.49118 11.4339C0.474152 10.7767 0.586872 10.1227 0.82289 9.50915C1.05891 8.89562 1.41359 8.33466 1.86664 7.85835L7.99998 1.66668C8.32751 1.33975 8.71791 1.08258 9.14759 0.910708C9.57727 0.738836 10.0373 0.655824 10.5 0.666684C10.9956 0.668372 11.4859 0.768717 11.9423 0.961867C12.3987 1.15502 12.8121 1.43711 13.1583 1.79168C13.8475 2.45522 14.2471 3.36378 14.2705 4.32016C14.2939 5.27655 13.9392 6.20357 13.2833 6.90002L7.11664 13.0917C6.91913 13.2905 6.68409 13.4482 6.42516 13.5555C6.16624 13.6628 5.88858 13.7176 5.60831 13.7167C5.30554 13.7171 5.00576 13.6568 4.72666 13.5395C4.44756 13.4221 4.1948 13.25 3.98331 13.0334C3.56058 12.6241 3.31645 12.0645 3.30397 11.4762C3.29149 10.888 3.51166 10.3185 3.91664 9.89168L9.60831 4.17502C9.7703 4.06744 9.9648 4.01989 10.1581 4.04061C10.3515 4.06134 10.5315 4.14902 10.667 4.28849C10.8025 4.42795 10.885 4.61041 10.9001 4.80427C10.9153 4.99814 10.8622 5.1912 10.75 5.35002L5.05831 11.0667C4.9634 11.181 4.9172 11.3281 4.92967 11.4762C4.94214 11.6242 5.01228 11.7615 5.12498 11.8584C5.24224 11.9764 5.40031 12.045 5.56664 12.05C5.62826 12.0509 5.68943 12.0396 5.74664 12.0167C5.80386 11.9938 5.85597 11.9598 5.89998 11.9167L12.0583 5.72502C12.404 5.341 12.5847 4.83638 12.5613 4.32023C12.5379 3.80407 12.3123 3.31786 11.9333 2.96668C11.5813 2.60122 11.1026 2.38457 10.5957 2.36132C10.0888 2.33807 9.5923 2.50998 9.20831 2.84168L3.04998 9.00002C2.75051 9.32166 2.51761 9.69935 2.36467 10.1113C2.21172 10.5233 2.14176 10.9615 2.15879 11.4007C2.17583 11.8398 2.27954 12.2712 2.46395 12.6701C2.64836 13.069 2.90983 13.4275 3.23331 13.725C3.55771 14.0613 3.94587 14.3296 4.37511 14.5141C4.80436 14.6987 5.26608 14.7959 5.73331 14.8C6.13616 14.8033 6.53568 14.7269 6.90894 14.5753C7.28219 14.4238 7.62182 14.1999 7.90831 13.9167L14.0666 7.72502C14.1438 7.64732 14.2355 7.58558 14.3365 7.54332C14.4375 7.50106 14.5459 7.47911 14.6554 7.47872C14.7649 7.47833 14.8734 7.49952 14.9747 7.54106C15.076 7.58261 15.1681 7.6437 15.2458 7.72085C15.3235 7.798 15.3853 7.8897 15.4275 7.99072C15.4698 8.09173 15.4917 8.20008 15.4921 8.30957C15.4925 8.41907 15.4713 8.52757 15.4298 8.62888C15.3882 8.73019 15.3271 8.82232 15.25 8.90002L9.09164 15.0917C8.6544 15.5367 8.13309 15.8903 7.55799 16.1321C6.9829 16.3738 6.36549 16.4989 5.74164 16.5Z" fill="#DFDEDF"/>
</svg>
