<svg width="18" height="21" viewBox="0 0 18 21" fill="none" xmlns="http://www.w3.org/2000/svg">
<path d="M17.52 13.21L15.72 11.4V6.93999C15.7439 5.28381 15.1678 3.6749 14.0981 2.41032C13.0283 1.14575 11.5372 0.310921 9.89995 0.0599858C8.94976 -0.065147 7.98382 0.0138007 7.06656 0.291561C6.1493 0.569322 5.30182 1.03951 4.58068 1.67075C3.85953 2.30199 3.2813 3.07976 2.88456 3.95218C2.48782 4.8246 2.2817 5.7716 2.27995 6.72999V11.4L0.479951 13.21C0.253857 13.4399 0.100535 13.7313 0.0391513 14.0478C-0.022232 14.3643 0.0110473 14.6919 0.134829 14.9896C0.25861 15.2873 0.467402 15.542 0.735102 15.7217C1.0028 15.9014 1.31753 15.9982 1.63995 16H4.99995V16.34C5.04666 17.3552 5.4939 18.3105 6.24368 18.9965C6.99345 19.6826 7.9846 20.0434 8.99995 20C10.0153 20.0434 11.0065 19.6826 11.7562 18.9965C12.506 18.3105 12.9532 17.3552 13 16.34V16H16.36C16.6824 15.9982 16.9971 15.9014 17.2648 15.7217C17.5325 15.542 17.7413 15.2873 17.8651 14.9896C17.9889 14.6919 18.0221 14.3643 17.9608 14.0478C17.8994 13.7313 17.746 13.4399 17.52 13.21ZM11 16.34C10.9445 16.821 10.7056 17.262 10.333 17.5713C9.96045 17.8805 9.48293 18.0341 8.99995 18C8.51697 18.0341 8.03945 17.8805 7.66688 17.5713C7.29431 17.262 7.05541 16.821 6.99995 16.34V16H11V16.34Z" fill="#737373"/>
</svg>
