<svg width="10" height="10" viewBox="0 0 10 10" fill="none" xmlns="http://www.w3.org/2000/svg">
<path d="M5 0C2.24292 0 0 2.24292 0 5C0 7.75708 2.24292 10 5 10C7.75708 10 10 7.75708 10 5C10 2.24292 7.75708 0 5 0ZM7.91208 4.185L7.45917 6.82375C7.43333 6.97375 7.30333 7.08333 7.15125 7.08333H2.84875C2.69667 7.08333 2.56667 6.97375 2.54083 6.82375L2.08792 4.185C2.06792 4.06958 2.11458 3.9525 2.20833 3.88208C2.3025 3.81125 2.42708 3.8 2.53292 3.85125L3.73875 4.43833L4.72708 2.66042C4.83708 2.46167 5.16333 2.46167 5.27333 2.66042L6.26167 4.43833L7.4675 3.85125C7.57292 3.8 7.69792 3.81125 7.79208 3.88208C7.88542 3.9525 7.93208 4.06958 7.91208 4.185Z" fill="url(#paint0_linear)"/>
<defs>
<linearGradient id="paint0_linear" x1="3.75" y1="-0.833333" x2="7.08333" y2="10" gradientUnits="userSpaceOnUse">
<stop stop-color="#FCCF33"/>
<stop offset="1" stop-color="#E29E01"/>
</linearGradient>
</defs>
</svg>
